<?xml version="1.0" encoding="UTF-8" standalone="no"?>
<!DOCTYPE svg PUBLIC "-//W3C//DTD SVG 1.1//EN"
 "http://www.w3.org/Graphics/SVG/1.1/DTD/svg11.dtd">
<!-- Generated by graphviz version 2.36.0 (20140111.2315)
 -->
<!-- Title: controllers_diagram Pages: 1 -->
<svg width="527pt" height="600pt"
 viewBox="0.00 0.00 527.00 600.00" xmlns="http://www.w3.org/2000/svg" xmlns:xlink="http://www.w3.org/1999/xlink">
<g id="graph0" class="graph" transform="scale(1 1) rotate(0) translate(4 596)">
<title>controllers_diagram</title>
<polygon fill="none" stroke="none" points="-4,4 -4,-596 523,-596 523,4 -4,4"/>
<!-- _diagram_info -->
<g id="node1" class="node"><title>_diagram_info</title>
<text text-anchor="start" x="242" y="-63.6" font-family="Times,serif" font-size="13.00">Controllers diagram</text>
<text text-anchor="start" x="242" y="-49.6" font-family="Times,serif" font-size="13.00">Date: Apr 19 2016 &#45; 17:08</text>
<text text-anchor="start" x="242" y="-35.6" font-family="Times,serif" font-size="13.00">Migration version: 20160405135353</text>
<text text-anchor="start" x="242" y="-21.6" font-family="Times,serif" font-size="13.00">Generated by RailRoady 1.4.2</text>
<text text-anchor="start" x="242" y="-7.6" font-family="Times,serif" font-size="13.00">http://railroady.prestonlee.com</text>
</g>
<!-- MembersController -->
<g id="node2" class="node"><title>MembersController</title>
<path fill="none" stroke="black" d="M354,-108.5C354,-108.5 455,-108.5 455,-108.5 461,-108.5 467,-114.5 467,-120.5 467,-120.5 467,-324.5 467,-324.5 467,-330.5 461,-336.5 455,-336.5 455,-336.5 354,-336.5 354,-336.5 348,-336.5 342,-330.5 342,-324.5 342,-324.5 342,-120.5 342,-120.5 342,-114.5 348,-108.5 354,-108.5"/>
<text text-anchor="middle" x="404.5" y="-321.3" font-family="Times,serif" font-size="14.00">MembersController</text>
<polyline fill="none" stroke="black" points="342,-313.5 467,-313.5 "/>
<text text-anchor="start" x="350" y="-298.3" font-family="Times,serif" font-size="14.00">create</text>
<text text-anchor="start" x="350" y="-283.3" font-family="Times,serif" font-size="14.00">destroy</text>
<text text-anchor="start" x="350" y="-268.3" font-family="Times,serif" font-size="14.00">edit</text>
<text text-anchor="start" x="350" y="-253.3" font-family="Times,serif" font-size="14.00">index</text>
<text text-anchor="start" x="350" y="-238.3" font-family="Times,serif" font-size="14.00">new</text>
<text text-anchor="start" x="350" y="-223.3" font-family="Times,serif" font-size="14.00">search</text>
<text text-anchor="start" x="350" y="-208.3" font-family="Times,serif" font-size="14.00">show</text>
<text text-anchor="start" x="350" y="-193.3" font-family="Times,serif" font-size="14.00">update</text>
<polyline fill="none" stroke="black" points="342,-185.5 467,-185.5 "/>
<polyline fill="none" stroke="black" points="342,-161.5 467,-161.5 "/>
<text text-anchor="start" x="350" y="-146.3" font-family="Times,serif" font-size="14.00">_layout</text>
<text text-anchor="start" x="350" y="-131.3" font-family="Times,serif" font-size="14.00">member_params</text>
<text text-anchor="start" x="350" y="-116.3" font-family="Times,serif" font-size="14.00">set_member</text>
</g>
<!-- StatusesController -->
<g id="node3" class="node"><title>StatusesController</title>
<path fill="none" stroke="black" d="M210,-360.5C210,-360.5 302,-360.5 302,-360.5 308,-360.5 314,-366.5 314,-372.5 314,-372.5 314,-561.5 314,-561.5 314,-567.5 308,-573.5 302,-573.5 302,-573.5 210,-573.5 210,-573.5 204,-573.5 198,-567.5 198,-561.5 198,-561.5 198,-372.5 198,-372.5 198,-366.5 204,-360.5 210,-360.5"/>
<text text-anchor="middle" x="256" y="-558.3" font-family="Times,serif" font-size="14.00">StatusesController</text>
<polyline fill="none" stroke="black" points="198,-550.5 314,-550.5 "/>
<text text-anchor="start" x="206" y="-535.3" font-family="Times,serif" font-size="14.00">create</text>
<text text-anchor="start" x="206" y="-520.3" font-family="Times,serif" font-size="14.00">destroy</text>
<text text-anchor="start" x="206" y="-505.3" font-family="Times,serif" font-size="14.00">edit</text>
<text text-anchor="start" x="206" y="-490.3" font-family="Times,serif" font-size="14.00">index</text>
<text text-anchor="start" x="206" y="-475.3" font-family="Times,serif" font-size="14.00">new</text>
<text text-anchor="start" x="206" y="-460.3" font-family="Times,serif" font-size="14.00">show</text>
<text text-anchor="start" x="206" y="-445.3" font-family="Times,serif" font-size="14.00">update</text>
<polyline fill="none" stroke="black" points="198,-437.5 314,-437.5 "/>
<polyline fill="none" stroke="black" points="198,-413.5 314,-413.5 "/>
<text text-anchor="start" x="206" y="-398.3" font-family="Times,serif" font-size="14.00">_layout</text>
<text text-anchor="start" x="206" y="-383.3" font-family="Times,serif" font-size="14.00">set_status</text>
<text text-anchor="start" x="206" y="-368.3" font-family="Times,serif" font-size="14.00">status_params</text>
</g>
<!-- MainController -->
<g id="node4" class="node"><title>MainController</title>
<path fill="none" stroke="black" d="M12,-306.5C12,-306.5 89,-306.5 89,-306.5 95,-306.5 101,-312.5 101,-318.5 101,-318.5 101,-387.5 101,-387.5 101,-393.5 95,-399.5 89,-399.5 89,-399.5 12,-399.5 12,-399.5 6,-399.5 0,-393.5 0,-387.5 0,-387.5 0,-318.5 0,-318.5 0,-312.5 6,-306.5 12,-306.5"/>
<text text-anchor="middle" x="50.5" y="-384.3" font-family="Times,serif" font-size="14.00">MainController</text>
<polyline fill="none" stroke="black" points="0,-376.5 101,-376.5 "/>
<text text-anchor="start" x="8" y="-361.3" font-family="Times,serif" font-size="14.00">index</text>
<polyline fill="none" stroke="black" points="0,-353.5 101,-353.5 "/>
<polyline fill="none" stroke="black" points="0,-329.5 101,-329.5 "/>
<text text-anchor="start" x="8" y="-314.3" font-family="Times,serif" font-size="14.00">_layout</text>
</g>
<!-- ResponsibilitiesController -->
<g id="node5" class="node"><title>ResponsibilitiesController</title>
<path fill="none" stroke="black" d="M156,-108.5C156,-108.5 290,-108.5 290,-108.5 296,-108.5 302,-114.5 302,-120.5 302,-120.5 302,-309.5 302,-309.5 302,-315.5 296,-321.5 290,-321.5 290,-321.5 156,-321.5 156,-321.5 150,-321.5 144,-315.5 144,-309.5 144,-309.5 144,-120.5 144,-120.5 144,-114.5 150,-108.5 156,-108.5"/>
<text text-anchor="middle" x="223" y="-306.3" font-family="Times,serif" font-size="14.00">ResponsibilitiesController</text>
<polyline fill="none" stroke="black" points="144,-298.5 302,-298.5 "/>
<text text-anchor="start" x="152" y="-283.3" font-family="Times,serif" font-size="14.00">create</text>
<text text-anchor="start" x="152" y="-268.3" font-family="Times,serif" font-size="14.00">destroy</text>
<text text-anchor="start" x="152" y="-253.3" font-family="Times,serif" font-size="14.00">edit</text>
<text text-anchor="start" x="152" y="-238.3" font-family="Times,serif" font-size="14.00">index</text>
<text text-anchor="start" x="152" y="-223.3" font-family="Times,serif" font-size="14.00">new</text>
<text text-anchor="start" x="152" y="-208.3" font-family="Times,serif" font-size="14.00">show</text>
<text text-anchor="start" x="152" y="-193.3" font-family="Times,serif" font-size="14.00">update</text>
<polyline fill="none" stroke="black" points="144,-185.5 302,-185.5 "/>
<polyline fill="none" stroke="black" points="144,-161.5 302,-161.5 "/>
<text text-anchor="start" x="152" y="-146.3" font-family="Times,serif" font-size="14.00">_layout</text>
<text text-anchor="start" x="152" y="-131.3" font-family="Times,serif" font-size="14.00">responsibility_params</text>
<text text-anchor="start" x="152" y="-116.3" font-family="Times,serif" font-size="14.00">set_responsibility</text>
</g>
<!-- ApplicationController -->
<g id="node6" class="node"><title>ApplicationController</title>
<path fill="none" stroke="black" d="M30,-432.5C30,-432.5 142,-432.5 142,-432.5 148,-432.5 154,-438.5 154,-444.5 154,-444.5 154,-544.5 154,-544.5 154,-550.5 148,-556.5 142,-556.5 142,-556.5 30,-556.5 30,-556.5 24,-556.5 18,-550.5 18,-544.5 18,-544.5 18,-444.5 18,-444.5 18,-438.5 24,-432.5 30,-432.5"/>
<text text-anchor="middle" x="86" y="-541.3" font-family="Times,serif" font-size="14.00">ApplicationController</text>
<polyline fill="none" stroke="black" points="18,-533.5 154,-533.5 "/>
<polyline fill="none" stroke="black" points="18,-509.5 154,-509.5 "/>
<polyline fill="none" stroke="black" points="18,-485.5 154,-485.5 "/>
<text text-anchor="start" x="26" y="-470.3" font-family="Times,serif" font-size="14.00">_layout</text>
<text text-anchor="start" x="26" y="-455.3" font-family="Times,serif" font-size="14.00">default_url_options</text>
<text text-anchor="start" x="26" y="-440.3" font-family="Times,serif" font-size="14.00">set_locale</text>
</g>
<!-- ChurchesController -->
<g id="node7" class="node"><title>ChurchesController</title>
<path fill="none" stroke="black" d="M408,-378.5C408,-378.5 507,-378.5 507,-378.5 513,-378.5 519,-384.5 519,-390.5 519,-390.5 519,-579.5 519,-579.5 519,-585.5 513,-591.5 507,-591.5 507,-591.5 408,-591.5 408,-591.5 402,-591.5 396,-585.5 396,-579.5 396,-579.5 396,-390.5 396,-390.5 396,-384.5 402,-378.5 408,-378.5"/>
<text text-anchor="middle" x="457.5" y="-576.3" font-family="Times,serif" font-size="14.00">ChurchesController</text>
<polyline fill="none" stroke="black" points="396,-568.5 519,-568.5 "/>
<text text-anchor="start" x="404" y="-553.3" font-family="Times,serif" font-size="14.00">create</text>
<text text-anchor="start" x="404" y="-538.3" font-family="Times,serif" font-size="14.00">destroy</text>
<text text-anchor="start" x="404" y="-523.3" font-family="Times,serif" font-size="14.00">edit</text>
<text text-anchor="start" x="404" y="-508.3" font-family="Times,serif" font-size="14.00">index</text>
<text text-anchor="start" x="404" y="-493.3" font-family="Times,serif" font-size="14.00">new</text>
<text text-anchor="start" x="404" y="-478.3" font-family="Times,serif" font-size="14.00">show</text>
<text text-anchor="start" x="404" y="-463.3" font-family="Times,serif" font-size="14.00">update</text>
<polyline fill="none" stroke="black" points="396,-455.5 519,-455.5 "/>
<polyline fill="none" stroke="black" points="396,-431.5 519,-431.5 "/>
<text text-anchor="start" x="404" y="-416.3" font-family="Times,serif" font-size="14.00">_layout</text>
<text text-anchor="start" x="404" y="-401.3" font-family="Times,serif" font-size="14.00">church_params</text>
<text text-anchor="start" x="404" y="-386.3" font-family="Times,serif" font-size="14.00">set_church</text>
</g>
</g>
</svg>
