<?xml version="1.0" encoding="UTF-8" standalone="no"?>
<!DOCTYPE svg PUBLIC "-//W3C//DTD SVG 1.1//EN"
 "http://www.w3.org/Graphics/SVG/1.1/DTD/svg11.dtd">
<!-- Generated by graphviz version 2.36.0 (20140111.2315)
 -->
<!-- Title: models_diagram Pages: 1 -->
<svg width="589pt" height="230pt"
 viewBox="0.00 0.00 589.00 230.00" xmlns="http://www.w3.org/2000/svg" xmlns:xlink="http://www.w3.org/1999/xlink">
<g id="graph0" class="graph" transform="scale(1 1) rotate(0) translate(4 226)">
<title>models_diagram</title>
<polygon fill="none" stroke="none" points="-4,4 -4,-226 585,-226 585,4 -4,4"/>
<!-- _diagram_info -->
<g id="node1" class="node"><title>_diagram_info</title>
<text text-anchor="start" x="8" y="-207.6" font-family="Times,serif" font-size="13.00">Models diagram</text>
<text text-anchor="start" x="8" y="-193.6" font-family="Times,serif" font-size="13.00">Date: Apr 19 2016 &#45; 17:08</text>
<text text-anchor="start" x="8" y="-179.6" font-family="Times,serif" font-size="13.00">Migration version: 20160405135353</text>
<text text-anchor="start" x="8" y="-165.6" font-family="Times,serif" font-size="13.00">Generated by RailRoady 1.4.2</text>
<text text-anchor="start" x="8" y="-151.6" font-family="Times,serif" font-size="13.00">http://railroady.prestonlee.com</text>
</g>
<!-- User -->
<g id="node2" class="node"><title>User</title>
<ellipse fill="none" stroke="black" cx="259" cy="-183" rx="26.949" ry="18"/>
<text text-anchor="middle" x="259" y="-179.3" font-family="Times,serif" font-size="14.00">User</text>
</g>
<!-- Status -->
<g id="node3" class="node"><title>Status</title>
<ellipse fill="none" stroke="black" cx="337" cy="-183" rx="32.2457" ry="18"/>
<text text-anchor="middle" x="337" y="-179.3" font-family="Times,serif" font-size="14.00">Status</text>
</g>
<!-- Member -->
<g id="node5" class="node"><title>Member</title>
<ellipse fill="none" stroke="black" cx="380" cy="-90" rx="41.394" ry="18"/>
<text text-anchor="middle" x="380" y="-86.3" font-family="Times,serif" font-size="14.00">Member</text>
</g>
<!-- Status&#45;&gt;Member -->
<g id="edge1" class="edge"><title>Status&#45;&gt;Member</title>
<path fill="none" stroke="#f6a68f" d="M348.353,-157.974C354.29,-145.409 361.567,-130.01 367.645,-117.146"/>
<ellipse fill="none" stroke="#f6a68f" cx="346.596" cy="-161.693" rx="4.00002" ry="4.00002"/>
<polygon fill="#f6a68f" stroke="#f6a68f" points="367.745,-116.935 376.086,-109.816 369.881,-112.414 372.018,-107.893 372.018,-107.893 372.018,-107.893 369.881,-112.414 367.949,-105.971 367.745,-116.935 367.745,-116.935"/>
</g>
<!-- AdminUser -->
<g id="node4" class="node"><title>AdminUser</title>
<ellipse fill="none" stroke="black" cx="530" cy="-183" rx="51.4931" ry="18"/>
<text text-anchor="middle" x="530" y="-179.3" font-family="Times,serif" font-size="14.00">AdminUser</text>
</g>
<!-- Responsibility -->
<g id="node6" class="node"><title>Responsibility</title>
<ellipse fill="none" stroke="black" cx="380" cy="-18" rx="61.6163" ry="18"/>
<text text-anchor="middle" x="380" y="-14.3" font-family="Times,serif" font-size="14.00">Responsibility</text>
</g>
<!-- Member&#45;&gt;Responsibility -->
<g id="edge2" class="edge"><title>Member&#45;&gt;Responsibility</title>
<path fill="none" stroke="#13261d" d="M380,-61.6651C380,-56.6867 380,-51.4906 380,-46.5072"/>
<polygon fill="#13261d" stroke="#13261d" points="380,-61.6966 375.5,-71.6966 380,-66.6966 380,-71.6966 380,-71.6966 380,-71.6966 380,-66.6966 384.5,-71.6967 380,-61.6966 380,-61.6966"/>
<polygon fill="#13261d" stroke="#13261d" points="380,-46.1043 384.5,-36.1043 380,-41.1043 380,-36.1043 380,-36.1043 380,-36.1043 380,-41.1043 375.5,-36.1044 380,-46.1043 380,-46.1043"/>
</g>
<!-- Church -->
<g id="node7" class="node"><title>Church</title>
<ellipse fill="none" stroke="black" cx="424" cy="-183" rx="36.096" ry="18"/>
<text text-anchor="middle" x="424" y="-179.3" font-family="Times,serif" font-size="14.00">Church</text>
</g>
<!-- Church&#45;&gt;Member -->
<g id="edge3" class="edge"><title>Church&#45;&gt;Member</title>
<path fill="none" stroke="#fdebc1" d="M412.383,-157.974C406.308,-145.409 398.862,-130.01 392.642,-117.146"/>
<ellipse fill="none" stroke="#fdebc1" cx="414.188" cy="-161.708" rx="4.00002" ry="4.00002"/>
<polygon fill="#fdebc1" stroke="#fdebc1" points="392.521,-116.896 392.219,-105.934 390.345,-112.395 388.168,-107.893 388.168,-107.893 388.168,-107.893 390.345,-112.395 384.117,-109.852 392.521,-116.896 392.521,-116.896"/>
</g>
</g>
</svg>
