<?xml version="1.0" encoding="UTF-8" standalone="no"?>
<!DOCTYPE svg PUBLIC "-//W3C//DTD SVG 1.1//EN"
 "http://www.w3.org/Graphics/SVG/1.1/DTD/svg11.dtd">
<!-- Generated by graphviz version 2.36.0 (20140111.2315)
 -->
<!-- Title: models_diagram Pages: 1 -->
<svg width="957pt" height="582pt"
 viewBox="0.00 0.00 957.00 582.00" xmlns="http://www.w3.org/2000/svg" xmlns:xlink="http://www.w3.org/1999/xlink">
<g id="graph0" class="graph" transform="scale(1 1) rotate(0) translate(4 578)">
<title>models_diagram</title>
<polygon fill="none" stroke="none" points="-4,4 -4,-578 953,-578 953,4 -4,4"/>
<!-- _diagram_info -->
<g id="node1" class="node"><title>_diagram_info</title>
<text text-anchor="start" x="8" y="-477.6" font-family="Times,serif" font-size="13.00">Models diagram</text>
<text text-anchor="start" x="8" y="-463.6" font-family="Times,serif" font-size="13.00">Date: Apr 19 2016 &#45; 17:08</text>
<text text-anchor="start" x="8" y="-449.6" font-family="Times,serif" font-size="13.00">Migration version: 20160405135353</text>
<text text-anchor="start" x="8" y="-435.6" font-family="Times,serif" font-size="13.00">Generated by RailRoady 1.4.2</text>
<text text-anchor="start" x="8" y="-421.6" font-family="Times,serif" font-size="13.00">http://railroady.prestonlee.com</text>
</g>
<!-- User -->
<g id="node2" class="node"><title>User</title>
<path fill="none" stroke="black" d="M244,-332.5C244,-332.5 420,-332.5 420,-332.5 426,-332.5 432,-338.5 432,-344.5 432,-344.5 432,-561.5 432,-561.5 432,-567.5 426,-573.5 420,-573.5 420,-573.5 244,-573.5 244,-573.5 238,-573.5 232,-567.5 232,-561.5 232,-561.5 232,-344.5 232,-344.5 232,-338.5 238,-332.5 244,-332.5"/>
<text text-anchor="middle" x="332" y="-558.3" font-family="Times,serif" font-size="14.00">User</text>
<polyline fill="none" stroke="black" points="232,-550.5 432,-550.5 "/>
<text text-anchor="start" x="240" y="-535.3" font-family="Times,serif" font-size="14.00">id :INTEGER</text>
<text text-anchor="start" x="240" y="-520.3" font-family="Times,serif" font-size="14.00">email :varchar</text>
<text text-anchor="start" x="240" y="-505.3" font-family="Times,serif" font-size="14.00">encrypted_password :varchar</text>
<text text-anchor="start" x="240" y="-490.3" font-family="Times,serif" font-size="14.00">name :varchar</text>
<text text-anchor="start" x="240" y="-475.3" font-family="Times,serif" font-size="14.00">reset_password_token :varchar</text>
<text text-anchor="start" x="240" y="-460.3" font-family="Times,serif" font-size="14.00">reset_password_sent_at :datetime</text>
<text text-anchor="start" x="240" y="-445.3" font-family="Times,serif" font-size="14.00">remember_created_at :datetime</text>
<text text-anchor="start" x="240" y="-430.3" font-family="Times,serif" font-size="14.00">sign_in_count :integer</text>
<text text-anchor="start" x="240" y="-415.3" font-family="Times,serif" font-size="14.00">current_sign_in_at :datetime</text>
<text text-anchor="start" x="240" y="-400.3" font-family="Times,serif" font-size="14.00">last_sign_in_at :datetime</text>
<text text-anchor="start" x="240" y="-385.3" font-family="Times,serif" font-size="14.00">current_sign_in_ip :varchar</text>
<text text-anchor="start" x="240" y="-370.3" font-family="Times,serif" font-size="14.00">last_sign_in_ip :varchar</text>
<text text-anchor="start" x="240" y="-355.3" font-family="Times,serif" font-size="14.00">created_at :datetime</text>
<text text-anchor="start" x="240" y="-340.3" font-family="Times,serif" font-size="14.00">updated_at :datetime</text>
</g>
<!-- Status -->
<g id="node3" class="node"><title>Status</title>
<path fill="none" stroke="black" d="M462.5,-407.5C462.5,-407.5 569.5,-407.5 569.5,-407.5 575.5,-407.5 581.5,-413.5 581.5,-419.5 581.5,-419.5 581.5,-486.5 581.5,-486.5 581.5,-492.5 575.5,-498.5 569.5,-498.5 569.5,-498.5 462.5,-498.5 462.5,-498.5 456.5,-498.5 450.5,-492.5 450.5,-486.5 450.5,-486.5 450.5,-419.5 450.5,-419.5 450.5,-413.5 456.5,-407.5 462.5,-407.5"/>
<text text-anchor="middle" x="516" y="-483.3" font-family="Times,serif" font-size="14.00">Status</text>
<polyline fill="none" stroke="black" points="450.5,-475.5 581.5,-475.5 "/>
<text text-anchor="start" x="458.5" y="-460.3" font-family="Times,serif" font-size="14.00">id :INTEGER</text>
<text text-anchor="start" x="458.5" y="-445.3" font-family="Times,serif" font-size="14.00">name :varchar</text>
<text text-anchor="start" x="458.5" y="-430.3" font-family="Times,serif" font-size="14.00">created_at :datetime</text>
<text text-anchor="start" x="458.5" y="-415.3" font-family="Times,serif" font-size="14.00">updated_at :datetime</text>
</g>
<!-- Member -->
<g id="node5" class="node"><title>Member</title>
<path fill="none" stroke="black" d="M536.5,-129C536.5,-129 643.5,-129 643.5,-129 649.5,-129 655.5,-135 655.5,-141 655.5,-141 655.5,-283 655.5,-283 655.5,-289 649.5,-295 643.5,-295 643.5,-295 536.5,-295 536.5,-295 530.5,-295 524.5,-289 524.5,-283 524.5,-283 524.5,-141 524.5,-141 524.5,-135 530.5,-129 536.5,-129"/>
<text text-anchor="middle" x="590" y="-279.8" font-family="Times,serif" font-size="14.00">Member</text>
<polyline fill="none" stroke="black" points="524.5,-272 655.5,-272 "/>
<text text-anchor="start" x="532.5" y="-256.8" font-family="Times,serif" font-size="14.00">id :INTEGER</text>
<text text-anchor="start" x="532.5" y="-241.8" font-family="Times,serif" font-size="14.00">name :varchar</text>
<text text-anchor="start" x="532.5" y="-226.8" font-family="Times,serif" font-size="14.00">adress :varchar</text>
<text text-anchor="start" x="532.5" y="-211.8" font-family="Times,serif" font-size="14.00">email :varchar</text>
<text text-anchor="start" x="532.5" y="-196.8" font-family="Times,serif" font-size="14.00">phone :integer</text>
<text text-anchor="start" x="532.5" y="-181.8" font-family="Times,serif" font-size="14.00">created_at :datetime</text>
<text text-anchor="start" x="532.5" y="-166.8" font-family="Times,serif" font-size="14.00">updated_at :datetime</text>
<text text-anchor="start" x="532.5" y="-151.8" font-family="Times,serif" font-size="14.00">church_id :integer</text>
<text text-anchor="start" x="532.5" y="-136.8" font-family="Times,serif" font-size="14.00">status_id :integer</text>
</g>
<!-- Status&#45;&gt;Member -->
<g id="edge1" class="edge"><title>Status&#45;&gt;Member</title>
<path fill="none" stroke="#fd716d" d="M532.3,-399.355C540.869,-371.679 551.622,-336.95 561.516,-304.996"/>
<ellipse fill="none" stroke="#fd716d" cx="531.015" cy="-403.505" rx="4.00001" ry="4.00001"/>
<polygon fill="#fd716d" stroke="#fd716d" points="561.598,-304.732 568.854,-296.51 563.077,-299.955 564.555,-295.179 564.555,-295.179 564.555,-295.179 563.077,-299.955 560.257,-293.848 561.598,-304.732 561.598,-304.732"/>
</g>
<!-- AdminUser -->
<g id="node4" class="node"><title>AdminUser</title>
<path fill="none" stroke="black" d="M761,-340C761,-340 937,-340 937,-340 943,-340 949,-346 949,-352 949,-352 949,-554 949,-554 949,-560 943,-566 937,-566 937,-566 761,-566 761,-566 755,-566 749,-560 749,-554 749,-554 749,-352 749,-352 749,-346 755,-340 761,-340"/>
<text text-anchor="middle" x="849" y="-550.8" font-family="Times,serif" font-size="14.00">AdminUser</text>
<polyline fill="none" stroke="black" points="749,-543 949,-543 "/>
<text text-anchor="start" x="757" y="-527.8" font-family="Times,serif" font-size="14.00">id :INTEGER</text>
<text text-anchor="start" x="757" y="-512.8" font-family="Times,serif" font-size="14.00">email :varchar</text>
<text text-anchor="start" x="757" y="-497.8" font-family="Times,serif" font-size="14.00">encrypted_password :varchar</text>
<text text-anchor="start" x="757" y="-482.8" font-family="Times,serif" font-size="14.00">reset_password_token :varchar</text>
<text text-anchor="start" x="757" y="-467.8" font-family="Times,serif" font-size="14.00">reset_password_sent_at :datetime</text>
<text text-anchor="start" x="757" y="-452.8" font-family="Times,serif" font-size="14.00">remember_created_at :datetime</text>
<text text-anchor="start" x="757" y="-437.8" font-family="Times,serif" font-size="14.00">sign_in_count :integer</text>
<text text-anchor="start" x="757" y="-422.8" font-family="Times,serif" font-size="14.00">current_sign_in_at :datetime</text>
<text text-anchor="start" x="757" y="-407.8" font-family="Times,serif" font-size="14.00">last_sign_in_at :datetime</text>
<text text-anchor="start" x="757" y="-392.8" font-family="Times,serif" font-size="14.00">current_sign_in_ip :varchar</text>
<text text-anchor="start" x="757" y="-377.8" font-family="Times,serif" font-size="14.00">last_sign_in_ip :varchar</text>
<text text-anchor="start" x="757" y="-362.8" font-family="Times,serif" font-size="14.00">created_at :datetime</text>
<text text-anchor="start" x="757" y="-347.8" font-family="Times,serif" font-size="14.00">updated_at :datetime</text>
</g>
<!-- Responsibility -->
<g id="node6" class="node"><title>Responsibility</title>
<path fill="none" stroke="black" d="M536.5,-0.5C536.5,-0.5 643.5,-0.5 643.5,-0.5 649.5,-0.5 655.5,-6.5 655.5,-12.5 655.5,-12.5 655.5,-79.5 655.5,-79.5 655.5,-85.5 649.5,-91.5 643.5,-91.5 643.5,-91.5 536.5,-91.5 536.5,-91.5 530.5,-91.5 524.5,-85.5 524.5,-79.5 524.5,-79.5 524.5,-12.5 524.5,-12.5 524.5,-6.5 530.5,-0.5 536.5,-0.5"/>
<text text-anchor="middle" x="590" y="-76.3" font-family="Times,serif" font-size="14.00">Responsibility</text>
<polyline fill="none" stroke="black" points="524.5,-68.5 655.5,-68.5 "/>
<text text-anchor="start" x="532.5" y="-53.3" font-family="Times,serif" font-size="14.00">id :INTEGER</text>
<text text-anchor="start" x="532.5" y="-38.3" font-family="Times,serif" font-size="14.00">name :varchar</text>
<text text-anchor="start" x="532.5" y="-23.3" font-family="Times,serif" font-size="14.00">created_at :datetime</text>
<text text-anchor="start" x="532.5" y="-8.3" font-family="Times,serif" font-size="14.00">updated_at :datetime</text>
</g>
<!-- Member&#45;&gt;Responsibility -->
<g id="edge2" class="edge"><title>Member&#45;&gt;Responsibility</title>
<path fill="none" stroke="#f1f95b" d="M590,-118.376C590,-112.708 590,-107.108 590,-101.688"/>
<polygon fill="#f1f95b" stroke="#f1f95b" points="590,-118.52 585.5,-128.519 590,-123.52 590,-128.52 590,-128.52 590,-128.52 590,-123.52 594.5,-128.52 590,-118.52 590,-118.52"/>
<polygon fill="#f1f95b" stroke="#f1f95b" points="590,-101.516 594.5,-91.5159 590,-96.5159 590,-91.5159 590,-91.5159 590,-91.5159 590,-96.5159 585.5,-91.516 590,-101.516 590,-101.516"/>
</g>
<!-- Church -->
<g id="node7" class="node"><title>Church</title>
<path fill="none" stroke="black" d="M611.5,-385C611.5,-385 718.5,-385 718.5,-385 724.5,-385 730.5,-391 730.5,-397 730.5,-397 730.5,-509 730.5,-509 730.5,-515 724.5,-521 718.5,-521 718.5,-521 611.5,-521 611.5,-521 605.5,-521 599.5,-515 599.5,-509 599.5,-509 599.5,-397 599.5,-397 599.5,-391 605.5,-385 611.5,-385"/>
<text text-anchor="middle" x="665" y="-505.8" font-family="Times,serif" font-size="14.00">Church</text>
<polyline fill="none" stroke="black" points="599.5,-498 730.5,-498 "/>
<text text-anchor="start" x="607.5" y="-482.8" font-family="Times,serif" font-size="14.00">id :INTEGER</text>
<text text-anchor="start" x="607.5" y="-467.8" font-family="Times,serif" font-size="14.00">name :varchar</text>
<text text-anchor="start" x="607.5" y="-452.8" font-family="Times,serif" font-size="14.00">adress :varchar</text>
<text text-anchor="start" x="607.5" y="-437.8" font-family="Times,serif" font-size="14.00">email :varchar</text>
<text text-anchor="start" x="607.5" y="-422.8" font-family="Times,serif" font-size="14.00">phone :integer</text>
<text text-anchor="start" x="607.5" y="-407.8" font-family="Times,serif" font-size="14.00">created_at :datetime</text>
<text text-anchor="start" x="607.5" y="-392.8" font-family="Times,serif" font-size="14.00">updated_at :datetime</text>
</g>
<!-- Church&#45;&gt;Member -->
<g id="edge3" class="edge"><title>Church&#45;&gt;Member</title>
<path fill="none" stroke="#37891b" d="M641.423,-376.867C634.284,-354.119 626.361,-328.87 618.915,-305.142"/>
<ellipse fill="none" stroke="#37891b" cx="642.711" cy="-380.973" rx="4.00001" ry="4.00001"/>
<polygon fill="#37891b" stroke="#37891b" points="618.862,-304.973 620.161,-294.085 617.365,-300.203 615.868,-295.432 615.868,-295.432 615.868,-295.432 617.365,-300.203 611.574,-296.779 618.862,-304.973 618.862,-304.973"/>
</g>
</g>
</svg>
